Ripper By.........................CurrentHD


General                          : The Emperors New Groove 2000 HDTV 720p{Dual audio}[Eng Hindi]Current_HD
Format                           : Matroska
File size                        : 1.32 GiB
Duration                         : 1h 15mn
Overall bit rate                 : 2 510 Kbps
Encoded date                     : UTC 2010-12-09 18:21:16
Writing application              : mkvmerge v2.2.0 
Writing library                  : libebml v0.7.7

Video
ID                               : 1
Format                           : AVC
Format/Info                      : Advanced Video Codec
Format profile                   : High@L4.1
Format settings, CABAC           : Yes
Format settings, ReFrames        : 9 frames
Muxing mode                      : Container profile=Unknown@4.1
Codec ID                         : V_MPEG4/ISO/AVC
Duration                         : 1h 15mn
Bit rate                         : 2 013 Kbps
Width                            : 1 216 pixels
Height                           : 720 pixels
Display aspect ratio             : 1.689
Frame rate                       : 25.000 fps
Color space                      : YUV
Chroma subsampling               : 4:2:0
Bit depth                        : 8 bits
Scan type                        : Progressive
Bits/(Pixel*Frame)               : 0.092
Stream size                      : 1.06 GiB (80%)
Title                            : CurrentHD
Writing library                  : x264 core 105 r1724 b02df7b
Language                         : English

Audio #1
ID                               : 4
Format                           : AC-3
Format/Info                      : Audio Coding 3
Mode extension                   : CM (complete main)
Codec ID                         : A_AC3
Duration                         : 1h 15mn
Bit rate mode                    : Constant
Bit rate                         : 224 Kbps
Channel(s)                       : 6 channels
Channel positions                : Front: L C R, Side: L R, LFE
Sampling rate                    : 48.0 KHz
Bit depth                        : 16 bits
Stream size                      : 120 MiB (9%)
Title                            : CurrentHD
Language                         : English

Audio #2
ID                               : 5
Format                           : AC-3
Format/Info                      : Audio Coding 3
Mode extension                   : CM (complete main)
Codec ID                         : A_AC3
Duration                         : 1h 15mn
Bit rate mode                    : Constant
Bit rate                         : 224 Kbps
Channel(s)                       : 6 channels
Channel positions                : Front: L C R, Side: L R, LFE
Sampling rate                    : 48.0 KHz
Bit depth                        : 16 bits
Stream size                      : 120 MiB (9%)
Title                            : CurrentHD
Language                         : Hindi

Text #1
ID                               : 2
Format                           : ASS
Codec ID                         : S_TEXT/ASS
Codec ID/Info                    : Advanced Sub Station Alpha
Title                            : CurrentHD (ASS)
Language                         : English

Text #2
ID                               : 3
Format                           : UTF-8
Codec ID                         : S_TEXT/UTF8
Codec ID/Info                    : UTF-8 Plain Text
Title                            : CurrentHD (SRT)
Language                         : English


SCREENSHOT 
http://img600.imageshack.us/img600/6438/0112985a6theemperorsnew.png
http://img813.imageshack.us/img813/7830/0112ctheemperorsnewgroo.png
http://img502.imageshack.us/img502/9365/01122b51theemperorsnewg.png

